<mxfile host="app.diagrams.net" modified="2022-08-11T07:12:59.779Z" agent="5.0 (Macintosh; Intel Mac OS X 10_15_7) AppleWebKit/537.36 (KHTML, like Gecko) Chrome/104.0.0.0 Safari/537.36" etag="qUAipfA5lHII5W0yoalE" version="20.2.3" type="github">
  <diagram id="CG99Nm2-LreTathdO4FF" name="第 1 页">
    <mxGraphModel dx="946" dy="614" grid="1" gridSize="10" guides="1" tooltips="1" connect="1" arrows="1" fold="1" page="1" pageScale="1" pageWidth="827" pageHeight="1169" background="#FCE7CD" math="0" shadow="0">
      <root>
        <mxCell id="0" />
        <mxCell id="1" parent="0" />
        <mxCell id="7oJAjaDkh5wQhp_m9pA4-1" value="" style="rounded=0;whiteSpace=wrap;html=1;sketch=1;hachureGap=4;fontFamily=Architects Daughter;fontSource=https%3A%2F%2Ffonts.googleapis.com%2Fcss%3Ffamily%3DArchitects%2BDaughter;fontSize=20;" vertex="1" parent="1">
          <mxGeometry x="240" y="20" width="250" height="120" as="geometry" />
        </mxCell>
        <mxCell id="7oJAjaDkh5wQhp_m9pA4-2" value="&lt;font face=&quot;Garamond&quot;&gt;&lt;b&gt;vm.msg =&#39;changed&#39;;&lt;br&gt;Vue.nextTick(function(){})&lt;br&gt;console.log(vm.$el.msg)&amp;nbsp;&lt;/b&gt;&lt;/font&gt;" style="text;html=1;strokeColor=none;fillColor=none;align=left;verticalAlign=middle;whiteSpace=wrap;rounded=0;sketch=1;hachureGap=4;fontFamily=Architects Daughter;fontSource=https%3A%2F%2Ffonts.googleapis.com%2Fcss%3Ffamily%3DArchitects%2BDaughter;fontSize=20;" vertex="1" parent="1">
          <mxGeometry x="250" y="15" width="300" height="130" as="geometry" />
        </mxCell>
        <mxCell id="7oJAjaDkh5wQhp_m9pA4-3" value="DOM更新" style="rounded=0;whiteSpace=wrap;html=1;sketch=1;hachureGap=4;fontFamily=Garamond;fontSize=20;" vertex="1" parent="1">
          <mxGeometry x="260" y="230" width="200" height="60" as="geometry" />
        </mxCell>
        <mxCell id="7oJAjaDkh5wQhp_m9pA4-4" value="" style="shape=flexArrow;endArrow=classic;html=1;rounded=1;sketch=1;hachureGap=4;fontFamily=Garamond;fontSize=16;startSize=14;endSize=14;sourcePerimeterSpacing=8;targetPerimeterSpacing=8;curved=1;" edge="1" parent="1">
          <mxGeometry width="50" height="50" relative="1" as="geometry">
            <mxPoint x="360" y="148" as="sourcePoint" />
            <mxPoint x="360" y="220" as="targetPoint" />
          </mxGeometry>
        </mxCell>
        <mxCell id="7oJAjaDkh5wQhp_m9pA4-5" value="" style="shape=flexArrow;endArrow=classic;html=1;rounded=1;sketch=1;hachureGap=4;fontFamily=Garamond;fontSize=16;startSize=14;endSize=14;sourcePerimeterSpacing=8;targetPerimeterSpacing=8;curved=1;" edge="1" parent="1">
          <mxGeometry width="50" height="50" relative="1" as="geometry">
            <mxPoint x="359" y="300" as="sourcePoint" />
            <mxPoint x="360" y="370" as="targetPoint" />
          </mxGeometry>
        </mxCell>
        <mxCell id="7oJAjaDkh5wQhp_m9pA4-6" value="&lt;font color=&quot;#ff0000&quot;&gt;nextTick的代码会在这里执行，这个时候DOM已经更新&lt;/font&gt;" style="rounded=0;whiteSpace=wrap;html=1;sketch=1;hachureGap=4;fontFamily=Garamond;fontSize=20;" vertex="1" parent="1">
          <mxGeometry x="240" y="380" width="250" height="80" as="geometry" />
        </mxCell>
        <mxCell id="7oJAjaDkh5wQhp_m9pA4-7" value="" style="rounded=0;whiteSpace=wrap;html=1;sketch=1;hachureGap=4;fontFamily=Garamond;fontSize=20;fillColor=none;strokeColor=#FF0000;strokeWidth=4;" vertex="1" parent="1">
          <mxGeometry x="249" y="66" width="230" height="30" as="geometry" />
        </mxCell>
        <mxCell id="7oJAjaDkh5wQhp_m9pA4-9" value="" style="curved=1;endArrow=classic;html=1;rounded=1;sketch=1;hachureGap=4;fontFamily=Garamond;fontSize=16;startSize=14;endSize=14;sourcePerimeterSpacing=8;targetPerimeterSpacing=8;entryX=1;entryY=0.25;entryDx=0;entryDy=0;strokeColor=#FF0000;strokeWidth=5;" edge="1" parent="1">
          <mxGeometry width="50" height="50" relative="1" as="geometry">
            <mxPoint x="479" y="89" as="sourcePoint" />
            <mxPoint x="490" y="409" as="targetPoint" />
            <Array as="points">
              <mxPoint x="590" y="180" />
              <mxPoint x="580" y="300" />
            </Array>
          </mxGeometry>
        </mxCell>
        <mxCell id="7oJAjaDkh5wQhp_m9pA4-17" style="edgeStyle=orthogonalEdgeStyle;curved=1;rounded=1;sketch=1;hachureGap=4;orthogonalLoop=1;jettySize=auto;html=1;exitX=0.5;exitY=1;exitDx=0;exitDy=0;entryX=0.5;entryY=0;entryDx=0;entryDy=0;fontFamily=Garamond;fontSize=16;fontColor=#000000;endArrow=open;startSize=14;endSize=14;sourcePerimeterSpacing=8;targetPerimeterSpacing=8;strokeColor=#000066;strokeWidth=5;" edge="1" parent="1" source="7oJAjaDkh5wQhp_m9pA4-10" target="7oJAjaDkh5wQhp_m9pA4-11">
          <mxGeometry relative="1" as="geometry" />
        </mxCell>
        <mxCell id="7oJAjaDkh5wQhp_m9pA4-10" value="开始" style="rounded=0;whiteSpace=wrap;html=1;sketch=1;hachureGap=4;fontFamily=Garamond;fontSize=20;strokeWidth=1;" vertex="1" parent="1">
          <mxGeometry x="96" y="500" width="120" height="60" as="geometry" />
        </mxCell>
        <mxCell id="7oJAjaDkh5wQhp_m9pA4-19" style="edgeStyle=orthogonalEdgeStyle;curved=1;rounded=1;sketch=1;hachureGap=4;orthogonalLoop=1;jettySize=auto;html=1;exitX=0.5;exitY=1;exitDx=0;exitDy=0;entryX=0.5;entryY=0;entryDx=0;entryDy=0;fontFamily=Garamond;fontSize=16;fontColor=#000000;endArrow=open;startSize=14;endSize=14;sourcePerimeterSpacing=8;targetPerimeterSpacing=8;strokeColor=#000066;strokeWidth=5;" edge="1" parent="1" source="7oJAjaDkh5wQhp_m9pA4-11" target="7oJAjaDkh5wQhp_m9pA4-13">
          <mxGeometry relative="1" as="geometry" />
        </mxCell>
        <mxCell id="7oJAjaDkh5wQhp_m9pA4-11" value="注册的回调函数进入队列" style="rounded=0;whiteSpace=wrap;html=1;labelBackgroundColor=#FFFFFF;sketch=1;hachureGap=4;fontFamily=Garamond;fontSize=20;fontColor=#000000;strokeColor=#000000;strokeWidth=1;fillColor=default;" vertex="1" parent="1">
          <mxGeometry x="60" y="600" width="190" height="70" as="geometry" />
        </mxCell>
        <mxCell id="7oJAjaDkh5wQhp_m9pA4-20" style="edgeStyle=orthogonalEdgeStyle;curved=1;rounded=1;sketch=1;hachureGap=4;orthogonalLoop=1;jettySize=auto;html=1;fontFamily=Garamond;fontSize=16;fontColor=#000000;endArrow=open;startSize=14;endSize=14;sourcePerimeterSpacing=8;targetPerimeterSpacing=8;strokeColor=#000066;strokeWidth=5;" edge="1" parent="1" source="7oJAjaDkh5wQhp_m9pA4-13" target="7oJAjaDkh5wQhp_m9pA4-14">
          <mxGeometry relative="1" as="geometry" />
        </mxCell>
        <mxCell id="7oJAjaDkh5wQhp_m9pA4-22" style="edgeStyle=orthogonalEdgeStyle;curved=1;rounded=1;sketch=1;hachureGap=4;orthogonalLoop=1;jettySize=auto;html=1;exitX=1;exitY=0.5;exitDx=0;exitDy=0;entryX=1;entryY=0.5;entryDx=0;entryDy=0;fontFamily=Garamond;fontSize=16;fontColor=#000000;endArrow=open;startSize=14;endSize=14;sourcePerimeterSpacing=8;targetPerimeterSpacing=8;strokeColor=#000066;strokeWidth=5;" edge="1" parent="1" source="7oJAjaDkh5wQhp_m9pA4-13" target="7oJAjaDkh5wQhp_m9pA4-15">
          <mxGeometry relative="1" as="geometry">
            <Array as="points">
              <mxPoint x="331" y="745" />
              <mxPoint x="331" y="1025" />
            </Array>
          </mxGeometry>
        </mxCell>
        <mxCell id="7oJAjaDkh5wQhp_m9pA4-13" value="pending" style="rhombus;whiteSpace=wrap;html=1;rounded=1;labelBackgroundColor=#FFFFFF;sketch=1;hachureGap=4;fontFamily=Garamond;fontSize=20;fontColor=#000000;strokeColor=#000000;strokeWidth=1;fillColor=default;" vertex="1" parent="1">
          <mxGeometry x="65" y="710" width="180" height="70" as="geometry" />
        </mxCell>
        <mxCell id="7oJAjaDkh5wQhp_m9pA4-21" style="edgeStyle=orthogonalEdgeStyle;curved=1;rounded=1;sketch=1;hachureGap=4;orthogonalLoop=1;jettySize=auto;html=1;entryX=0.5;entryY=0;entryDx=0;entryDy=0;fontFamily=Garamond;fontSize=16;fontColor=#000000;endArrow=open;startSize=14;endSize=14;sourcePerimeterSpacing=8;targetPerimeterSpacing=8;strokeColor=#000066;strokeWidth=5;" edge="1" parent="1" source="7oJAjaDkh5wQhp_m9pA4-14" target="7oJAjaDkh5wQhp_m9pA4-15">
          <mxGeometry relative="1" as="geometry" />
        </mxCell>
        <mxCell id="7oJAjaDkh5wQhp_m9pA4-14" value="异步执行队列" style="rounded=0;whiteSpace=wrap;html=1;labelBackgroundColor=#FFFFFF;sketch=1;hachureGap=4;fontFamily=Garamond;fontSize=20;fontColor=#000000;strokeColor=#000000;strokeWidth=1;fillColor=default;" vertex="1" parent="1">
          <mxGeometry x="61" y="850" width="190" height="70" as="geometry" />
        </mxCell>
        <mxCell id="7oJAjaDkh5wQhp_m9pA4-15" value="没有回调，并且支持Promise，返回一个Promise的回调" style="rounded=0;whiteSpace=wrap;html=1;labelBackgroundColor=#FFFFFF;sketch=1;hachureGap=4;fontFamily=Garamond;fontSize=20;fontColor=#000000;strokeColor=#000000;strokeWidth=1;fillColor=default;" vertex="1" parent="1">
          <mxGeometry x="61" y="990" width="190" height="70" as="geometry" />
        </mxCell>
        <mxCell id="7oJAjaDkh5wQhp_m9pA4-23" value="false" style="text;html=1;strokeColor=none;fillColor=none;align=center;verticalAlign=middle;whiteSpace=wrap;rounded=0;labelBackgroundColor=#FFFFFF;sketch=1;hachureGap=4;fontFamily=Garamond;fontSize=20;fontColor=#000000;" vertex="1" parent="1">
          <mxGeometry x="171" y="800" width="60" height="30" as="geometry" />
        </mxCell>
        <mxCell id="7oJAjaDkh5wQhp_m9pA4-24" value="true" style="text;html=1;strokeColor=none;fillColor=none;align=center;verticalAlign=middle;whiteSpace=wrap;rounded=0;labelBackgroundColor=#FFFFFF;sketch=1;hachureGap=4;fontFamily=Garamond;fontSize=20;fontColor=#000000;" vertex="1" parent="1">
          <mxGeometry x="341" y="880" width="60" height="30" as="geometry" />
        </mxCell>
        <mxCell id="7oJAjaDkh5wQhp_m9pA4-25" value="&lt;div style=&quot;text-align: left;&quot;&gt;通过数组callbacks来存储用户注册的回调。声明了变量pending来标记是否正在执行任务。这里使用一个异步锁，等待任务队列执行完毕之后，再执行下一个任务。&lt;/div&gt;&lt;div style=&quot;text-align: left;&quot;&gt;&lt;br&gt;&lt;/div&gt;&lt;div style=&quot;text-align: left;&quot;&gt;当前任务队列正常执行时，将pending设为true，每当任务被执行完时，将pending设为false【通过pending的值来判断当前任务队列是否在执行，新来的任务放入下一个任务队列】&lt;/div&gt;&lt;div style=&quot;text-align: left;&quot;&gt;&lt;br&gt;&lt;/div&gt;&lt;div style=&quot;text-align: left;&quot;&gt;当前队列中，执行函数flushCallbacks，将callbacks中所有函数依次执行，然后清空callbacks，pending设为false&lt;/div&gt;&lt;div style=&quot;text-align: left;&quot;&gt;（一次事件循环中，flushCallbacks只调用一次）&lt;/div&gt;" style="text;html=1;align=center;verticalAlign=middle;whiteSpace=wrap;rounded=0;labelBackgroundColor=#FFFFFF;sketch=1;hachureGap=4;fontFamily=Garamond;fontSize=20;" vertex="1" parent="1">
          <mxGeometry x="414" y="640" width="400" height="400" as="geometry" />
        </mxCell>
      </root>
    </mxGraphModel>
  </diagram>
</mxfile>
